<svg xmlns="http://www.w3.org/2000/svg" xmlns:xlink="http://www.w3.org/1999/xlink" width="1920" height="601.841" viewBox="0 0 1920 601.841">
  <defs>
    <linearGradient id="linear-gradient" x1="0.5" x2="0.5" y2="1" gradientUnits="objectBoundingBox">
      <stop offset="0" stop-color="#e28527"/>
      <stop offset="1" stop-color="#d55223"/>
    </linearGradient>
  </defs>
  <path id="background-1920" d="M2725.884,2408.841h-.078c-20.65,0-41.478-.512-61.905-1.519-19.673-.969-39.511-2.425-58.963-4.326-18.692-1.827-37.522-4.114-55.965-6.8-17.679-2.571-35.482-5.576-52.914-8.93-32.544-6.263-65-13.974-96.457-22.92-28.331-8.056-56.458-17.282-83.6-27.424V1807H4236v409.561c-107.115-37.294-224.005-56.2-347.425-56.2-184.509,0-381.273,42.509-584.829,126.346-26.937,11.094-54.191,21.581-81.007,31.168-26.141,9.346-52.583,18.094-78.595,26-25.338,7.7-50.954,14.819-76.135,21.148-24.5,6.16-49.276,11.746-73.628,16.6-23.659,4.721-47.572,8.884-71.074,12.373-22.807,3.386-45.844,6.23-68.473,8.453-21.934,2.155-44.08,3.784-65.823,4.843C2767.974,2408.321,2746.735,2408.841,2725.884,2408.841Z" transform="translate(-2316 -1807)" fill="url(#linear-gradient)"/>
</svg>
