<svg xmlns="http://www.w3.org/2000/svg" xmlns:xlink="http://www.w3.org/1999/xlink" width="1280" height="601.841" viewBox="0 0 1280 601.841">
  <defs>
    <linearGradient id="linear-gradient" x1="0.5" x2="0.5" y2="1" gradientUnits="objectBoundingBox">
      <stop offset="0" stop-color="#e28527"/>
      <stop offset="1" stop-color="#d55223"/>
    </linearGradient>
  </defs>
  <path id="background" d="M2589.256,2408.841h-.052c-13.767,0-27.652-.512-41.27-1.519-13.115-.969-26.341-2.425-39.309-4.326-12.462-1.827-25.015-4.114-37.31-6.8-11.786-2.571-23.655-5.576-35.276-8.93a561.419,561.419,0,0,1-64.3-22.92A579.6,579.6,0,0,1,2316,2336.926V1807H3596v409.561c-71.41-37.294-149.337-56.2-231.617-56.2-123.006,0-254.182,42.509-389.885,126.346-17.958,11.094-36.127,21.581-54,31.168-17.427,9.346-35.056,18.094-52.4,26-16.892,7.7-33.969,14.819-50.757,21.148-16.336,6.16-32.851,11.746-49.085,16.6-15.773,4.721-31.715,8.884-47.383,12.373-15.2,3.386-30.563,6.23-45.649,8.453-14.622,2.155-29.386,3.784-43.882,4.843C2617.316,2408.321,2603.157,2408.841,2589.256,2408.841Z" transform="translate(-2316 -1807)" fill="url(#linear-gradient)"/>
</svg>
